<svg enable-background="new 0 0 122.88 117.34" viewBox="0 0 122.88 117.34" xmlns="http://www.w3.org/2000/svg"><path clip-rule="evenodd" d="m54.36 38.66c4.7 0 8.51 3.81 8.51 8.51s-3.81 8.51-8.51 8.51-8.51-3.81-8.51-8.51c-.01-4.7 3.81-8.51 8.51-8.51zm-6.19-31.58c-1.5-3.34-5.42-4.83-8.76-3.34-3.34 1.5-4.83 5.42-3.34 8.76.99 2.2 3.03 3.6 5.26 3.87l3.93 7.75c-3.68 1.8-7.02 4.19-9.89 7.06-.22.22-.43.43-.64.65l-9.43-5.02c.12-1.25-.02-2.55-.46-3.81-1.63-4.7-6.77-7.18-11.47-5.55s-7.18 6.77-5.55 11.47 6.77 7.18 11.47 5.55c.99-.34 1.88-.84 2.66-1.46l8.38 4.46c-2.7 4.25-4.56 9.1-5.32 14.3l-6.86.1c-1.15-1.7-3.08-2.85-5.29-2.91-3.66-.11-6.71 2.77-6.82 6.43s2.77 6.71 6.43 6.82c2.52.07 4.75-1.26 5.93-3.3l6.26-.09c.13 2.94.61 5.78 1.39 8.5l-17 9.2c-1.06-.42-2.24-.56-3.44-.38-3.62.57-6.09 3.96-5.52 7.58s3.96 6.09 7.58 5.52c3.41-.54 5.81-3.59 5.59-6.97l15.42-8.34c1.75 3.41 4.03 6.51 6.71 9.2.2.2.41.41.62.61l-7.65 10.82c-1.38-.31-2.85-.3-4.31.09-4.81 1.29-7.66 6.23-6.37 11.03 1.29 4.81 6.23 7.66 11.03 6.37 4.81-1.29 7.66-6.23 6.37-11.03-.23-.85-.57-1.64-1.01-2.36l7.47-10.56c4.33 2.78 9.29 4.68 14.62 5.43l-1.27 10.25c-3.49 1.73-4.96 5.94-3.29 9.48 1.69 3.57 5.96 5.1 9.53 3.4 3.57-1.69 5.1-5.96 3.4-9.53-.59-1.25-1.49-2.24-2.57-2.94l1.28-10.34c6.02-.3 11.66-2.06 16.58-4.92l2.88 4.08 4 5.66c-.44.72-.78 1.51-1.01 2.36-1.29 4.81 1.56 9.75 6.37 11.03 4.81 1.29 9.75-1.56 11.03-6.37 1.29-4.81-1.56-9.75-6.37-11.03-1.46-.39-2.93-.4-4.31-.09l-3.98-5.62-2.92-4.12c.62-.54 1.22-1.1 1.8-1.68 2.44-2.43 4.53-5.21 6.21-8.25l16.28 5.76c.7 2.91 3.32 5.07 6.44 5.07 3.66 0 6.63-2.97 6.63-6.63s-2.97-6.63-6.63-6.63c-1.59 0-3.05.56-4.19 1.49l-15.73-5.57c1.13-3.54 1.75-7.31 1.75-11.23 0-3.54-.5-6.97-1.44-10.21l8.75-4.27c1.01.79 2.25 1.33 3.62 1.48 3.93.44 7.47-2.39 7.91-6.32s-2.39-7.47-6.32-7.91c-3.89-.43-7.39 2.33-7.89 6.19l-8.69 4.24c-1.48-2.88-3.34-5.54-5.5-7.92l12.13-12.7c.93.35 1.94.54 2.99.56 4.98.08 9.07-3.89 9.15-8.87.08-4.97-3.89-9.07-8.87-9.15s-9.07 3.89-9.15 8.87c-.02 1.33.25 2.6.75 3.74l-12.21 12.81c-3.56-2.66-7.63-4.69-12.02-5.92l1.07-9.01c2.27-.92 3.94-3.07 4.12-5.68.26-3.65-2.5-6.82-6.15-7.08-3.65-.26-6.82 2.5-7.08 6.15-.15 2.1.7 4.04 2.14 5.35l-1.07 9.02c-.98-.08-1.96-.12-2.96-.12-3.26 0-6.42.43-9.43 1.22l-4.21-8.29c1.16-1.81 1.41-4.15.46-6.26zm33.88 29.37c-5.3-5.3-12.62-8.57-20.7-8.57s-15.4 3.28-20.7 8.57c-5.3 5.3-8.57 12.62-8.57 20.7s3.28 15.4 8.57 20.7c5.3 5.3 12.62 8.57 20.7 8.57s15.4-3.28 20.7-8.57c5.3-5.3 8.57-12.62 8.57-20.7.01-8.08-3.27-15.4-8.57-20.7zm-5.72 11.76c2.7 0 4.88 2.19 4.88 4.88 0 2.7-2.19 4.88-4.88 4.88-2.7 0-4.88-2.19-4.88-4.88 0-2.7 2.18-4.88 4.88-4.88zm-15.09 13.75c4.7 0 8.51 3.81 8.51 8.51s-3.81 8.51-8.51 8.51-8.51-3.81-8.51-8.51c-.01-4.69 3.8-8.51 8.51-8.51z" fill="#baec57" fill-rule="evenodd"/></svg>